<svg id="svg" fill="#ff0000" stroke="#ff0000" width="33" height="33" version="1.1" viewBox="143 143 514 514" xmlns="http://www.w3.org/2000/svg" stroke-width="15">
    <g id="IconSvg_bgCarrier" stroke-width="0"></g>
    <g id="IconSvg_tracerCarrier" stroke-linecap="round" stroke-linejoin="round" stroke="#CCCCCC" stroke-width="60">
      <g xmlns="http://www.w3.org/2000/svg">
  <path d="m569.18 384.88c0.003906-34.086-15.547-66.312-42.234-87.516-26.688-21.203-61.598-29.066-94.801-21.352-33.199 7.7109-61.066 30.16-75.676 60.957-39.121-7.6445-79.434 5.2266-106.89 34.129-27.449 28.902-38.234 69.824-28.586 108.5-19.406 0-37.332 10.352-47.035 27.152-9.7031 16.805-9.7031 37.508 0 54.312 9.7031 16.805 27.629 27.156 47.035 27.156h223.49c17.617-0.082031 34.484-7.1328 46.918-19.613s19.422-29.375 19.434-46.992c0.011718-12.082-3.2969-23.934-9.5703-34.258 20.082-8.5938 37.215-22.871 49.281-41.082 12.066-18.207 18.543-39.551 18.633-61.395zm-124.7 190.74h-223.24c-14.902 0-28.676-7.9492-36.125-20.855-7.4531-12.906-7.4531-28.809 0-41.715 7.4492-12.906 21.223-20.859 36.125-20.859h8.1641c2.0234-0.007812 3.9219-0.98828 5.0977-2.6328 1.1797-1.6484 1.4922-3.7617 0.84766-5.6797-3.5195-10.543-5.3047-21.586-5.293-32.695 0.80859-36.637 20.816-70.145 52.684-88.234 31.863-18.086 70.895-18.086 102.76 0 31.863 18.09 51.875 51.598 52.68 88.234 0 3.0742 0 6.2969-0.45312 9.6211-0.14844 1.8711 0.53125 3.7148 1.8633 5.0391 1.3203 1.3555 3.1445 2.1016 5.0391 2.0625 18.895 0.57812 36.109 10.992 45.395 27.457 9.2852 16.469 9.2852 36.59 0 53.055s-26.5 26.879-45.395 27.457zm49.172-98.746c-0.70703-0.75391-1.3594-1.5625-2.1172-2.3164-10.934-10.973-25.379-17.75-40.809-19.145v-4.1797-0.003906c-0.007813-24.828-7.9297-49.012-22.613-69.031-14.688-20.023-35.371-34.844-59.051-42.309 14.711-29.098 42.793-49.094 75.102-53.48 32.309-4.3867 64.707 7.3984 86.645 31.52s30.609 57.488 23.188 89.234c-7.4219 31.75-29.984 57.816-60.344 69.711z"></path>
  <path d="m457.43 256.82c1.668 0 3.2695-0.66406 4.4531-1.8438 1.1797-1.1836 1.8438-2.7852 1.8438-4.4531v-34.211c0-3.4766-2.8203-6.2969-6.2969-6.2969-3.4805 0-6.2969 2.8203-6.2969 6.2969v34.211c0 1.668 0.66016 3.2695 1.8438 4.4531 1.1797 1.1797 2.7812 1.8438 4.4531 1.8438z"></path>
  <path d="m626.71 379.29h-34.207c-3.4766 0-6.2969 2.8203-6.2969 6.2969 0 3.4766 2.8203 6.2969 6.2969 6.2969h34.207c3.4805 0 6.3008-2.8203 6.3008-6.2969 0-3.4766-2.8203-6.2969-6.3008-6.2969z"></path>
  <path d="m572.65 261.45-24.184 24.184h0.003906c-1.7734 1.8125-2.293 4.5078-1.332 6.8516 0.96484 2.3398 3.2305 3.8867 5.7656 3.9297 1.6797-0.015624 3.2852-0.68359 4.4805-1.8633l24.184-24.184c2.4648-2.4609 2.4648-6.4531 0-8.918-2.4609-2.4609-6.4531-2.4609-8.918 0z"></path>
  <path d="m557.39 476.63c-2.4805-2.4141-6.4336-2.4141-8.9141 0-1.1875 1.1797-1.8516 2.7852-1.8516 4.457 0 1.6719 0.66406 3.2773 1.8516 4.4609l24.184 24.234-0.003906-0.003906c1.2031 1.1641 2.8125 1.8164 4.4844 1.8164 2.543-0.058594 4.8047-1.6367 5.7305-4.0039 0.92578-2.3711 0.33594-5.0664-1.4961-6.8281z"></path>
  <path d="m357.48 294.55c1.1719 1.1836 2.7695 1.8555 4.4336 1.8633 1.6797-0.015624 3.2852-0.68359 4.4844-1.8633 2.4141-2.4844 2.4141-6.4336 0-8.918l-24.234-24.184c-1.1797-1.1836-2.7852-1.8477-4.457-1.8477s-3.2773 0.66406-4.4609 1.8477c-2.4102 2.4844-2.4102 6.4375 0 8.918z"></path>
 </g>

      </g>
     <g id="IconSvg_iconCarrier">
      <g xmlns="http://www.w3.org/2000/svg">
  <path d="m569.18 384.88c0.003906-34.086-15.547-66.312-42.234-87.516-26.688-21.203-61.598-29.066-94.801-21.352-33.199 7.7109-61.066 30.16-75.676 60.957-39.121-7.6445-79.434 5.2266-106.89 34.129-27.449 28.902-38.234 69.824-28.586 108.5-19.406 0-37.332 10.352-47.035 27.152-9.7031 16.805-9.7031 37.508 0 54.312 9.7031 16.805 27.629 27.156 47.035 27.156h223.49c17.617-0.082031 34.484-7.1328 46.918-19.613s19.422-29.375 19.434-46.992c0.011718-12.082-3.2969-23.934-9.5703-34.258 20.082-8.5938 37.215-22.871 49.281-41.082 12.066-18.207 18.543-39.551 18.633-61.395zm-124.7 190.74h-223.24c-14.902 0-28.676-7.9492-36.125-20.855-7.4531-12.906-7.4531-28.809 0-41.715 7.4492-12.906 21.223-20.859 36.125-20.859h8.1641c2.0234-0.007812 3.9219-0.98828 5.0977-2.6328 1.1797-1.6484 1.4922-3.7617 0.84766-5.6797-3.5195-10.543-5.3047-21.586-5.293-32.695 0.80859-36.637 20.816-70.145 52.684-88.234 31.863-18.086 70.895-18.086 102.76 0 31.863 18.09 51.875 51.598 52.68 88.234 0 3.0742 0 6.2969-0.45312 9.6211-0.14844 1.8711 0.53125 3.7148 1.8633 5.0391 1.3203 1.3555 3.1445 2.1016 5.0391 2.0625 18.895 0.57812 36.109 10.992 45.395 27.457 9.2852 16.469 9.2852 36.59 0 53.055s-26.5 26.879-45.395 27.457zm49.172-98.746c-0.70703-0.75391-1.3594-1.5625-2.1172-2.3164-10.934-10.973-25.379-17.75-40.809-19.145v-4.1797-0.003906c-0.007813-24.828-7.9297-49.012-22.613-69.031-14.688-20.023-35.371-34.844-59.051-42.309 14.711-29.098 42.793-49.094 75.102-53.48 32.309-4.3867 64.707 7.3984 86.645 31.52s30.609 57.488 23.188 89.234c-7.4219 31.75-29.984 57.816-60.344 69.711z"></path>
  <path d="m457.43 256.82c1.668 0 3.2695-0.66406 4.4531-1.8438 1.1797-1.1836 1.8438-2.7852 1.8438-4.4531v-34.211c0-3.4766-2.8203-6.2969-6.2969-6.2969-3.4805 0-6.2969 2.8203-6.2969 6.2969v34.211c0 1.668 0.66016 3.2695 1.8438 4.4531 1.1797 1.1797 2.7812 1.8438 4.4531 1.8438z"></path>
  <path d="m626.71 379.29h-34.207c-3.4766 0-6.2969 2.8203-6.2969 6.2969 0 3.4766 2.8203 6.2969 6.2969 6.2969h34.207c3.4805 0 6.3008-2.8203 6.3008-6.2969 0-3.4766-2.8203-6.2969-6.3008-6.2969z"></path>
  <path d="m572.65 261.45-24.184 24.184h0.003906c-1.7734 1.8125-2.293 4.5078-1.332 6.8516 0.96484 2.3398 3.2305 3.8867 5.7656 3.9297 1.6797-0.015624 3.2852-0.68359 4.4805-1.8633l24.184-24.184c2.4648-2.4609 2.4648-6.4531 0-8.918-2.4609-2.4609-6.4531-2.4609-8.918 0z"></path>
  <path d="m557.39 476.63c-2.4805-2.4141-6.4336-2.4141-8.9141 0-1.1875 1.1797-1.8516 2.7852-1.8516 4.457 0 1.6719 0.66406 3.2773 1.8516 4.4609l24.184 24.234-0.003906-0.003906c1.2031 1.1641 2.8125 1.8164 4.4844 1.8164 2.543-0.058594 4.8047-1.6367 5.7305-4.0039 0.92578-2.3711 0.33594-5.0664-1.4961-6.8281z"></path>
  <path d="m357.48 294.55c1.1719 1.1836 2.7695 1.8555 4.4336 1.8633 1.6797-0.015624 3.2852-0.68359 4.4844-1.8633 2.4141-2.4844 2.4141-6.4336 0-8.918l-24.234-24.184c-1.1797-1.1836-2.7852-1.8477-4.457-1.8477s-3.2773 0.66406-4.4609 1.8477c-2.4102 2.4844-2.4102 6.4375 0 8.918z"></path>
 </g>

      </g>
      </svg>